<svg width="56" height="56" viewBox="0 0 56 56" fill="none" xmlns="http://www.w3.org/2000/svg">
<g filter="url(#filter0_d_42_20938)">
<circle cx="26.277" cy="26.277" r="26.277" fill="#FFFF4D"/>
<circle cx="26.3714" cy="26.3714" r="20.1551" stroke="black" stroke-width="1.88366"/>
<path d="M39.7449 26.2769C39.7449 33.7151 33.715 39.745 26.2767 39.745C18.8385 39.745 12.8086 33.7151 12.8086 26.2769" stroke="black" stroke-width="1.88366"/>
<path d="M21.5052 13.9463V15.9336H20.5015V13.9463H21.5052ZM21.3647 24.873V26.6864H20.361V24.873H21.3647ZM21.7394 22.6716C21.7394 22.4263 21.7059 22.2166 21.639 22.0427C21.5721 21.8687 21.4673 21.7126 21.3245 21.5743C21.1818 21.436 20.99 21.3044 20.7491 21.1795C20.2584 20.9565 19.8257 20.7178 19.451 20.4635C19.0763 20.2093 18.7841 19.8948 18.5744 19.5201C18.3692 19.1409 18.2666 18.6591 18.2666 18.0748C18.2666 17.5216 18.3782 17.0421 18.6012 16.6362C18.8287 16.2302 19.1432 15.9157 19.5447 15.6927C19.9506 15.4697 20.4167 15.3581 20.9431 15.3581C21.3446 15.3581 21.7104 15.4295 22.0405 15.5723C22.3706 15.7105 22.6538 15.9157 22.8903 16.1878C23.1267 16.4555 23.3073 16.7856 23.4323 17.1781C23.5616 17.5662 23.6263 18.0101 23.6263 18.5097H21.7528C21.7528 18.2465 21.7327 18.0145 21.6925 17.8138C21.6524 17.6131 21.5944 17.4458 21.5186 17.312C21.4427 17.1781 21.3535 17.0778 21.2509 17.0109C21.1483 16.944 21.0368 16.9105 20.9164 16.9105C20.7379 16.9105 20.5907 16.9618 20.4747 17.0644C20.3588 17.167 20.274 17.3075 20.2205 17.4859C20.1669 17.6599 20.1402 17.8562 20.1402 18.0748C20.1402 18.2978 20.1714 18.4919 20.2339 18.6569C20.3008 18.822 20.4078 18.9736 20.555 19.1119C20.7067 19.2502 20.9052 19.3907 21.1505 19.5335C21.6368 19.761 22.065 20.0063 22.4353 20.2695C22.8055 20.5282 23.0932 20.8472 23.2984 21.2263C23.5081 21.601 23.6129 22.0783 23.6129 22.6582C23.6129 23.2382 23.4969 23.7311 23.265 24.137C23.033 24.5429 22.7096 24.853 22.2947 25.0671C21.8844 25.2767 21.4026 25.3816 20.8494 25.3816C20.497 25.3816 20.1491 25.328 19.8056 25.221C19.4666 25.1095 19.1566 24.931 18.8755 24.6857C18.5945 24.4359 18.3692 24.108 18.1997 23.7021C18.0347 23.2917 17.9521 22.7832 17.9521 22.1765H19.8257C19.8257 22.4977 19.8525 22.7653 19.906 22.9794C19.964 23.1891 20.042 23.3564 20.1402 23.4813C20.2383 23.6062 20.3476 23.6954 20.468 23.7489C20.5885 23.8024 20.7179 23.8292 20.8561 23.8292C21.0569 23.8292 21.2219 23.7779 21.3513 23.6753C21.4806 23.5727 21.5766 23.4344 21.639 23.2605C21.7059 23.0865 21.7394 22.8902 21.7394 22.6716Z" fill="black"/>
<path d="M32.3108 13.9463V15.9336H31.3072V13.9463H32.3108ZM32.1703 24.873V26.6864H31.1666V24.873H32.1703ZM32.545 22.6716C32.545 22.4263 32.5116 22.2166 32.4447 22.0427C32.3778 21.8687 32.2729 21.7126 32.1302 21.5743C31.9874 21.436 31.7956 21.3044 31.5547 21.1795C31.0641 20.9565 30.6314 20.7178 30.2566 20.4635C29.8819 20.2093 29.5898 19.8948 29.3801 19.5201C29.1749 19.1409 29.0723 18.6591 29.0723 18.0748C29.0723 17.5216 29.1838 17.0421 29.4069 16.6362C29.6344 16.2302 29.9488 15.9157 30.3503 15.6927C30.7563 15.4697 31.2224 15.3581 31.7488 15.3581C32.1503 15.3581 32.516 15.4295 32.8461 15.5723C33.1762 15.7105 33.4595 15.9157 33.6959 16.1878C33.9324 16.4555 34.113 16.7856 34.2379 17.1781C34.3673 17.5662 34.432 18.0101 34.432 18.5097H32.5584C32.5584 18.2465 32.5383 18.0145 32.4982 17.8138C32.4581 17.6131 32.4001 17.4458 32.3242 17.312C32.2484 17.1781 32.1592 17.0778 32.0566 17.0109C31.954 16.944 31.8425 16.9105 31.722 16.9105C31.5436 16.9105 31.3964 16.9618 31.2804 17.0644C31.1644 17.167 31.0797 17.3075 31.0261 17.4859C30.9726 17.6599 30.9458 17.8562 30.9458 18.0748C30.9458 18.2978 30.9771 18.4919 31.0395 18.6569C31.1064 18.822 31.2135 18.9736 31.3607 19.1119C31.5124 19.2502 31.7109 19.3907 31.9562 19.5335C32.4424 19.761 32.8707 20.0063 33.2409 20.2695C33.6112 20.5282 33.8989 20.8472 34.1041 21.2263C34.3138 21.601 34.4186 22.0783 34.4186 22.6582C34.4186 23.2382 34.3026 23.7311 34.0706 24.137C33.8387 24.5429 33.5153 24.853 33.1004 25.0671C32.69 25.2767 32.2082 25.3816 31.6551 25.3816C31.3027 25.3816 30.9548 25.328 30.6113 25.221C30.2723 25.1095 29.9622 24.931 29.6812 24.6857C29.4002 24.4359 29.1749 24.108 29.0054 23.7021C28.8403 23.2917 28.7578 22.7832 28.7578 22.1765H30.6314C30.6314 22.4977 30.6581 22.7653 30.7116 22.9794C30.7696 23.1891 30.8477 23.3564 30.9458 23.4813C31.044 23.6062 31.1533 23.6954 31.2737 23.7489C31.3942 23.8024 31.5235 23.8292 31.6618 23.8292C31.8625 23.8292 32.0276 23.7779 32.1569 23.6753C32.2863 23.5727 32.3822 23.4344 32.4447 23.2605C32.5116 23.0865 32.545 22.8902 32.545 22.6716Z" fill="black"/>
</g>
<defs>
<filter id="filter0_d_42_20938" x="0" y="0" width="55.3792" height="55.3794" filterUnits="userSpaceOnUse" color-interpolation-filters="sRGB">
<feFlood flood-opacity="0" result="BackgroundImageFix"/>
<feColorMatrix in="SourceAlpha" type="matrix" values="0 0 0 0 0 0 0 0 0 0 0 0 0 0 0 0 0 0 127 0" result="hardAlpha"/>
<feOffset dx="1.88366" dy="1.88366"/>
<feGaussianBlur stdDeviation="0.470914"/>
<feComposite in2="hardAlpha" operator="out"/>
<feColorMatrix type="matrix" values="0 0 0 0 0 0 0 0 0 0 0 0 0 0 0 0 0 0 0.2 0"/>
<feBlend mode="normal" in2="BackgroundImageFix" result="effect1_dropShadow_42_20938"/>
<feBlend mode="normal" in="SourceGraphic" in2="effect1_dropShadow_42_20938" result="shape"/>
</filter>
</defs>
</svg>
