<svg width="82" height="82" viewBox="0 0 82 82" fill="none" xmlns="http://www.w3.org/2000/svg">
<path fill-rule="evenodd" clip-rule="evenodd" d="M82 41C82 63.6437 63.6437 82 41 82C18.3563 82 0 63.6437 0 41C0 18.3563 18.3563 0 41 0C63.6437 0 82 18.3563 82 41ZM54.8767 25.8623C54.8767 33.5263 48.6638 39.7392 40.9997 39.7392C33.3357 39.7392 27.1228 33.5263 27.1228 25.8623C27.1228 18.1982 33.3357 11.9853 40.9997 11.9853C48.6638 11.9853 54.8767 18.1982 54.8767 25.8623ZM60.1308 72.2228H21.869C21.0768 71.7363 20.3045 71.2206 19.5536 70.677V53.271C19.5536 49.2807 22.7884 46.0458 26.7788 46.0458H55.2208C59.2111 46.0458 62.4459 49.2807 62.4459 53.271V70.6772C61.6952 71.2207 60.923 71.7364 60.1308 72.2228Z" fill="#888888"/>
</svg>
