<svg width="44" height="44" viewBox="0 0 44 44" fill="none" xmlns="http://www.w3.org/2000/svg">
<path fill-rule="evenodd" clip-rule="evenodd" d="M44 22C44 34.1503 34.1503 44 22 44C9.84974 44 0 34.1503 0 22C0 9.84974 9.84974 0 22 0C34.1503 0 44 9.84974 44 22ZM29.4462 13.8771C29.4462 17.9895 26.1124 21.3233 22 21.3233C17.8876 21.3233 14.5539 17.9895 14.5539 13.8771C14.5539 9.76475 17.8876 6.43099 22 6.43099C26.1124 6.43099 29.4462 9.76475 29.4462 13.8771ZM32.2659 38.7538H11.7345C11.3095 38.4928 10.8952 38.2161 10.4924 37.9245V28.5846C10.4924 26.4434 12.2281 24.7076 14.3693 24.7076H29.6308C31.772 24.7076 33.5077 26.4434 33.5077 28.5846V37.9248C33.105 38.2163 32.6908 38.4929 32.2659 38.7538Z" fill="#888888"/>
</svg>
