<svg width="48" height="48" viewBox="0 0 48 48" fill="none" xmlns="http://www.w3.org/2000/svg">
<path d="M11.8007 8.77045C10.9638 7.93361 9.60704 7.93361 8.77021 8.77045C7.93337 9.60729 7.93337 10.9641 8.77021 11.8009L20.9693 24L8.77021 36.199C7.93337 37.0359 7.93337 38.3926 8.77021 39.2295C9.60704 40.0663 10.9638 40.0663 11.8007 39.2295L23.9997 27.0304L36.1988 39.2295C37.0356 40.0663 38.3924 40.0663 39.2292 39.2295C40.0661 38.3926 40.0661 37.0359 39.2292 36.199L27.0302 24L39.2292 11.8009C40.0661 10.9641 40.0661 9.60729 39.2292 8.77045C38.3924 7.93361 37.0356 7.93361 36.1988 8.77045L23.9997 20.9695L11.8007 8.77045Z" fill="#99A2AD"/>
</svg>
