<svg width="139" height="139" viewBox="0 0 139 139" fill="none" xmlns="http://www.w3.org/2000/svg">
<circle cx="69.6646" cy="69.6885" r="68.7134" fill="#2787F5"/>
<path d="M62.7572 79.5681C62.7572 75.2971 63.4805 72.025 64.9271 69.7517C66.3738 67.4784 68.647 65.3085 71.747 63.2419C75.0535 61.0375 77.3612 58.9364 78.6701 56.9387C80.0478 54.941 80.7367 52.9088 80.7367 50.8422C80.7367 48.1556 79.7379 45.9512 77.7401 44.229C75.7424 42.438 73.0214 41.5424 69.577 41.5424C66.4082 41.5424 63.6872 42.3346 61.4139 43.9191C59.1406 45.5035 57.3496 47.7767 56.0407 50.7389L46.0176 49.0856C47.9465 43.4368 50.9775 39.1314 55.1107 36.1693C59.2439 33.2071 64.1349 31.726 69.7837 31.726C74.0547 31.726 77.8435 32.5527 81.15 34.206C84.4566 35.8593 87.0399 38.1325 88.8998 41.0258C90.7598 43.8502 91.6898 46.9845 91.6898 50.4289C91.6898 57.2487 87.7288 63.4141 79.8067 68.9251C77.189 70.6472 75.2946 72.2661 74.1236 73.7816C73.0214 75.2282 72.4703 77.1571 72.4703 79.5681V83.7013H62.7572V79.5681ZM67.6137 106.641C65.7538 106.641 64.2038 106.021 62.9638 104.781C61.7928 103.541 61.2072 102.025 61.2072 100.234C61.2072 98.3743 61.7928 96.8243 62.9638 95.5844C64.2038 94.3444 65.7538 93.7244 67.6137 93.7244C69.4048 93.7244 70.9203 94.3788 72.1603 95.6877C73.4691 96.9277 74.1236 98.4432 74.1236 100.234C74.1236 102.025 73.4691 103.541 72.1603 104.781C70.9203 106.021 69.4048 106.641 67.6137 106.641Z" fill="white"/>
</svg>
