<svg width="556" height="590" viewBox="0 0 556 590" fill="none" xmlns="http://www.w3.org/2000/svg">
  <g filter="url(#filter0_d_42_11629)">
    <circle cx="381.151" cy="415.151" r="139.5" transform="rotate(-16.9757 381.151 415.151)" fill="#9A06DE"/>
    <circle cx="381.775" cy="415.483" r="106" transform="rotate(-16.9757 381.775 415.483)" stroke="black" stroke-width="12"/>
    <path d="M338.162 488.394C340.22 461.449 358.446 437.243 385.863 428.873C413.28 420.504 441.917 430.405 458.672 451.606" stroke="black" stroke-width="12"/>
    <ellipse cx="348.018" cy="387.103" rx="9" ry="32" transform="rotate(-16.9757 348.018 387.103)" fill="black"/>
    <ellipse cx="397.753" cy="371.92" rx="9" ry="32" transform="rotate(-16.9757 397.753 371.92)" fill="black"/>
  </g>
  <g filter="url(#filter1_d_42_11629)">
    <circle cx="221.497" cy="221.498" r="175.15" transform="rotate(18.4082 221.497 221.498)" fill="#F1262D"/>
    <circle cx="221.895" cy="222.291" r="133.089" transform="rotate(18.4082 221.895 222.291)" stroke="black" stroke-width="15.0667"/>
    <path d="M306.676 249.846C291.02 296.889 240.192 322.333 193.149 306.676C146.106 291.02 120.662 240.192 136.319 193.149" stroke="black" stroke-width="15.0667"/>
    <path d="M217.271 133.467L213.088 146.036L206.74 143.923L210.923 131.355L217.271 133.467ZM193.383 202.277L189.566 213.746L183.219 211.633L187.035 200.165L193.383 202.277ZM200.387 189.143C200.903 187.592 201.133 186.195 201.076 184.954C201.019 183.713 200.684 182.505 200.073 181.33C199.461 180.155 198.525 178.919 197.264 177.622C194.63 175.179 192.396 172.758 190.561 170.362C188.727 167.965 187.541 165.361 187.004 162.55C186.504 159.72 186.869 156.457 188.099 152.761C189.263 149.263 190.978 146.465 193.243 144.367C195.536 142.278 198.187 140.951 201.196 140.386C204.233 139.83 207.416 140.106 210.745 141.214C213.284 142.059 215.447 143.28 217.234 144.878C219.031 146.447 220.39 148.341 221.313 150.559C222.245 152.75 222.692 155.218 222.656 157.963C222.657 160.69 222.132 163.633 221.081 166.793L209.232 162.85C209.786 161.185 210.147 159.676 210.315 158.322C210.484 156.968 210.469 155.788 210.271 154.782C210.074 153.776 209.721 152.953 209.213 152.314C208.704 151.675 208.07 151.229 207.308 150.975C206.179 150.599 205.14 150.614 204.191 151.019C203.241 151.424 202.41 152.134 201.696 153.15C200.991 154.137 200.408 155.322 199.948 156.705C199.479 158.115 199.268 159.408 199.315 160.584C199.391 161.768 199.749 162.953 200.389 164.137C201.057 165.331 202.017 166.638 203.268 168.057C205.864 170.519 208.056 172.972 209.844 175.416C211.641 177.832 212.789 180.454 213.289 183.284C213.826 186.095 213.484 189.335 212.264 193.002C211.043 196.67 209.272 199.543 206.951 201.622C204.629 203.701 201.931 204.981 198.857 205.462C195.82 205.925 192.552 205.573 189.054 204.409C186.825 203.667 184.738 202.596 182.791 201.196C180.881 199.778 179.296 197.996 178.035 195.853C176.783 193.682 176.049 191.134 175.831 188.21C175.651 185.267 176.2 181.877 177.477 178.04L189.326 181.984C188.65 184.015 188.256 185.764 188.143 187.231C188.069 188.679 188.211 189.901 188.568 190.898C188.926 191.894 189.429 192.689 190.079 193.281C190.728 193.873 191.489 194.314 192.364 194.605C193.634 195.028 194.785 195.051 195.819 194.674C196.854 194.298 197.751 193.625 198.512 192.656C199.302 191.697 199.926 190.526 200.387 189.143Z" fill="black"/>
    <path d="M285.611 156.212L281.428 168.781L275.08 166.668L279.263 154.099L285.611 156.212ZM261.723 225.022L257.906 236.49L251.558 234.378L255.375 222.909L261.723 225.022ZM268.726 211.888C269.243 210.336 269.472 208.94 269.415 207.699C269.358 206.458 269.024 205.25 268.412 204.075C267.8 202.9 266.864 201.664 265.604 200.367C262.97 197.923 260.736 195.503 258.901 193.106C257.066 190.709 255.88 188.105 255.343 185.294C254.844 182.464 255.209 179.202 256.439 175.506C257.603 172.007 259.318 169.209 261.583 167.112C263.876 165.023 266.527 163.696 269.535 163.13C272.572 162.574 275.755 162.85 279.084 163.958C281.623 164.803 283.786 166.025 285.574 167.622C287.37 169.192 288.73 171.086 289.652 173.304C290.584 175.494 291.032 177.962 290.996 180.708C290.997 183.435 290.472 186.378 289.42 189.538L277.571 185.594C278.125 183.93 278.486 182.42 278.655 181.066C278.824 179.712 278.809 178.532 278.611 177.526C278.413 176.52 278.06 175.698 277.552 175.059C277.044 174.42 276.409 173.973 275.647 173.72C274.519 173.344 273.48 173.359 272.53 173.763C271.581 174.168 270.749 174.878 270.035 175.894C269.33 176.882 268.748 178.067 268.288 179.449C267.818 180.86 267.607 182.153 267.655 183.328C267.731 184.513 268.089 185.697 268.729 186.882C269.397 188.076 270.356 189.382 271.608 190.801C274.204 193.264 276.396 195.717 278.183 198.161C279.98 200.576 281.129 203.199 281.628 206.029C282.166 208.84 281.824 212.079 280.603 215.747C279.383 219.415 277.612 222.288 275.29 224.367C272.969 226.446 270.271 227.726 267.196 228.207C264.16 228.669 260.892 228.318 257.394 227.154C255.165 226.412 253.077 225.341 251.13 223.941C249.221 222.522 247.636 220.741 246.375 218.598C245.123 216.426 244.388 213.879 244.171 210.955C243.991 208.012 244.539 204.622 245.816 200.785L257.665 204.728C256.989 206.76 256.595 208.509 256.483 209.976C256.408 211.424 256.55 212.646 256.908 213.642C257.266 214.639 257.769 215.433 258.418 216.025C259.067 216.617 259.829 217.059 260.704 217.35C261.973 217.773 263.125 217.796 264.159 217.419C265.193 217.042 266.091 216.37 266.852 215.401C267.641 214.441 268.266 213.27 268.726 211.888Z" fill="black"/>
  </g>
  <defs>
    <filter id="filter0_d_42_11629" x="241.614" y="275.614" width="294.074" height="294.074" filterUnits="userSpaceOnUse" color-interpolation-filters="sRGB">
      <feFlood flood-opacity="0" result="BackgroundImageFix"/>
      <feColorMatrix in="SourceAlpha" type="matrix" values="0 0 0 0 0 0 0 0 0 0 0 0 0 0 0 0 0 0 127 0" result="hardAlpha"/>
      <feOffset dx="10" dy="10"/>
      <feGaussianBlur stdDeviation="2.5"/>
      <feComposite in2="hardAlpha" operator="out"/>
      <feColorMatrix type="matrix" values="0 0 0 0 0 0 0 0 0 0 0 0 0 0 0 0 0 0 0.2 0"/>
      <feBlend mode="normal" in2="BackgroundImageFix" result="effect1_dropShadow_42_11629"/>
      <feBlend mode="normal" in="SourceGraphic" in2="effect1_dropShadow_42_11629" result="shape"/>
    </filter>
    <filter id="filter1_d_42_11629" x="46.2997" y="46.2998" width="369.229" height="369.229" filterUnits="userSpaceOnUse" color-interpolation-filters="sRGB">
      <feFlood flood-opacity="0" result="BackgroundImageFix"/>
      <feColorMatrix in="SourceAlpha" type="matrix" values="0 0 0 0 0 0 0 0 0 0 0 0 0 0 0 0 0 0 127 0" result="hardAlpha"/>
      <feOffset dx="12.5556" dy="12.5556"/>
      <feGaussianBlur stdDeviation="3.13889"/>
      <feComposite in2="hardAlpha" operator="out"/>
      <feColorMatrix type="matrix" values="0 0 0 0 0 0 0 0 0 0 0 0 0 0 0 0 0 0 0.2 0"/>
      <feBlend mode="normal" in2="BackgroundImageFix" result="effect1_dropShadow_42_11629"/>
      <feBlend mode="normal" in="SourceGraphic" in2="effect1_dropShadow_42_11629" result="shape"/>
    </filter>
  </defs>
</svg>
