<svg width="1920" height="1080" viewBox="0 0 1920 1080" fill="none" xmlns="http://www.w3.org/2000/svg">
<g clip-path="url(#clip0_42_11940)">
<rect width="1920" height="1080" fill="#0077FF"/>
<path d="M1421.74 718.82C1422.32 723.178 1422.64 727.622 1423.54 731.893C1436.2 792.405 1453.4 851.58 1476.74 908.882C1492.94 948.695 1511.96 987.07 1536.31 1022.61C1550.18 1042.82 1565.63 1061.69 1584.11 1077.93C1584.7 1078.32 1585.34 1078.66 1586 1078.93C1585.8 1079.28 1585.59 1079.62 1585.4 1079.99H1582.34C1530.03 1079.99 1477.72 1079.99 1425.42 1079.99C1424.31 1080.06 1423.2 1079.8 1422.24 1079.25C1421.28 1078.69 1420.5 1077.86 1420.01 1076.86C1391.46 1031.6 1368.91 983.41 1349.99 933.458C1327.22 872.82 1309.49 810.407 1296.99 746.854C1295.22 737.979 1293.53 729.089 1291.79 720.069H1061.26C1063.45 728.886 1065.51 737.5 1067.78 746.128C1081.67 799.086 1100.22 850.316 1125.1 899.164C1146.47 941.156 1171.84 980.505 1204.42 1014.77C1228.36 1039.99 1255.27 1061.25 1287.06 1075.78C1289.74 1076.9 1292.32 1078.27 1294.75 1079.86H1291.34C1214.81 1079.86 1138.32 1079.86 1061.87 1079.86C1060.7 1079.94 1059.53 1079.72 1058.48 1079.21C1057.42 1078.7 1056.52 1077.92 1055.87 1076.95C1018.25 1027.92 988.607 974.332 964.4 917.626C937.5 854.232 917.4 788.165 904.436 720.534C904.409 720.167 904.409 719.798 904.436 719.43H1057.23C976.097 611.842 930.459 489.933 904 359.352H1056.56C975.893 252.069 930.43 130.392 904 0.261708H1060.92C1063.41 10.0662 1065.79 20.0012 1068.45 29.8783C1087.73 101.807 1114.94 170.38 1155.51 233.23C1175.68 264.474 1198.95 293.118 1227.08 317.636C1245.73 334.203 1266.8 347.829 1289.56 358.045C1291.08 358.766 1292.71 359.186 1294.39 359.279C1335.77 359.338 1377.16 359.338 1418.56 359.279C1419.13 359.279 1419.69 359.207 1420.56 359.149C1352.55 248.438 1315.48 126.95 1291.52 0H1295.88C1336.31 0 1376.73 0 1417.16 0C1419.87 0 1421.04 0.465032 1421.65 3.50079C1433.64 63.1555 1449.97 121.561 1472.13 178.282C1488.8 220.913 1508.34 262.121 1534.09 300.119C1541.46 311.029 1549.4 321.554 1557.86 331.653C1566.33 341.719 1575.77 350.956 1584.78 360.543H1421.07C1423.19 370.449 1425.1 379.89 1427.22 389.288C1438.8 441.284 1454.4 492.301 1473.9 541.875C1490.99 584.869 1511.13 626.309 1537.57 664.452C1551.11 684.003 1566.18 702.218 1584.07 718.007C1584.64 718.426 1585.26 718.79 1585.9 719.096L1585.39 720.069H1582.34C1530.03 720.069 1477.75 720.069 1425.49 720.069C1424.2 719.886 1422.94 719.529 1421.74 719.009C1421.09 718.31 1420.5 717.562 1419.97 716.772C1409.52 698.398 1398.33 680.459 1388.79 661.576C1344.24 573.67 1315.82 480.317 1296.44 384.001C1294.9 376.346 1293.53 368.663 1292.08 361.081H1061.61C1061.81 362.286 1061.92 363.245 1062.14 364.174C1077.31 428.085 1098.74 489.759 1129.47 547.99C1150.69 588.166 1175.69 625.656 1207.51 658.381C1231.87 683.393 1259.17 704.281 1291.48 718.123C1293.46 718.959 1295.59 719.398 1297.74 719.416C1337.9 719.493 1378.07 719.493 1418.25 719.416C1419.43 719.297 1420.59 719.098 1421.74 718.82Z" fill="#0069E0"/>
<path d="M1895 719.874H1779.86C1781.07 727.24 1782.15 734.402 1783.4 741.404C1790.56 781.98 1799.01 822.265 1809.3 862.158C1821.66 910.099 1836.2 957.416 1855.34 1003.16C1866.23 1029.17 1878.6 1054.42 1894.01 1078.08C1894.26 1078.47 1894.45 1078.91 1894.85 1079.68C1893.71 1079.78 1892.82 1079.91 1891.95 1079.91C1855.73 1079.91 1819.54 1079.91 1783.34 1080C1780.65 1080 1779.59 1078.94 1778.53 1076.76C1755.64 1029.27 1738.3 979.716 1723.65 929.159C1705.7 866.677 1691.58 803.161 1681.36 738.964C1680.33 732.528 1679.31 726.092 1678.22 719.293H1779.7C1752.24 662.359 1732.54 603.232 1716.31 542.884C1700.17 482.394 1687.45 421.043 1678.22 359.124H1778.95C1725.74 244.704 1698.03 123.645 1678 0H1779.63C1780.81 6.7263 1782.03 13.5835 1783.21 20.455C1792.22 73.6785 1804.14 126.371 1818.9 178.298C1829.24 215.415 1841.9 251.848 1856.8 287.386C1867.28 311.996 1879.08 335.923 1893.71 358.397C1894.01 358.877 1894.27 359.4 1894.81 360.358H1779.97C1780.88 366.082 1781.64 371.37 1782.55 376.644C1790.03 419.733 1798.98 462.502 1809.97 504.836C1822.18 551.862 1836.52 598.191 1855.28 643.066C1866.11 668.969 1878.41 694.131 1893.74 717.738C1894.07 718.232 1894.35 718.741 1895 719.874Z" fill="#0069E0"/>
<g filter="url(#filter0_d_42_11940)">
<circle cx="1285.15" cy="782.151" r="139.5" transform="rotate(-16.9757 1285.15 782.151)" fill="#9A06DE"/>
<circle cx="1285.78" cy="782.483" r="106" transform="rotate(-16.9757 1285.78 782.483)" stroke="black" stroke-width="12"/>
<path d="M1242.16 855.394C1244.22 828.449 1262.45 804.243 1289.86 795.873C1317.28 787.504 1345.92 797.405 1362.67 818.606" stroke="black" stroke-width="12"/>
<ellipse cx="1252.02" cy="754.103" rx="9" ry="32" transform="rotate(-16.9757 1252.02 754.103)" fill="black"/>
<ellipse cx="1301.75" cy="738.92" rx="9" ry="32" transform="rotate(-16.9757 1301.75 738.92)" fill="black"/>
</g>
<g filter="url(#filter1_d_42_11940)">
<circle cx="1125.5" cy="588.498" r="175.15" transform="rotate(18.4082 1125.5 588.498)" fill="#F1262D"/>
<circle cx="1125.89" cy="589.291" r="133.089" transform="rotate(18.4082 1125.89 589.291)" stroke="black" stroke-width="15.0667"/>
<path d="M1210.68 616.846C1195.02 663.889 1144.19 689.333 1097.15 673.676C1050.11 658.02 1024.66 607.192 1040.32 560.149" stroke="black" stroke-width="15.0667"/>
<path d="M1121.27 500.467L1117.09 513.036L1110.74 510.923L1114.92 498.355L1121.27 500.467ZM1097.38 569.277L1093.57 580.746L1087.22 578.633L1091.04 567.165L1097.38 569.277ZM1104.39 556.143C1104.9 554.592 1105.13 553.195 1105.08 551.954C1105.02 550.713 1104.68 549.505 1104.07 548.33C1103.46 547.155 1102.52 545.919 1101.26 544.622C1098.63 542.179 1096.4 539.758 1094.56 537.362C1092.73 534.965 1091.54 532.361 1091 529.55C1090.5 526.72 1090.87 523.457 1092.1 519.761C1093.26 516.263 1094.98 513.465 1097.24 511.367C1099.54 509.278 1102.19 507.951 1105.2 507.386C1108.23 506.83 1111.42 507.106 1114.74 508.214C1117.28 509.059 1119.45 510.28 1121.23 511.878C1123.03 513.447 1124.39 515.341 1125.31 517.559C1126.24 519.75 1126.69 522.218 1126.66 524.963C1126.66 527.69 1126.13 530.633 1125.08 533.793L1113.23 529.85C1113.79 528.185 1114.15 526.676 1114.32 525.322C1114.48 523.968 1114.47 522.788 1114.27 521.782C1114.07 520.776 1113.72 519.953 1113.21 519.314C1112.7 518.675 1112.07 518.229 1111.31 517.975C1110.18 517.599 1109.14 517.614 1108.19 518.019C1107.24 518.424 1106.41 519.134 1105.7 520.15C1104.99 521.137 1104.41 522.322 1103.95 523.705C1103.48 525.115 1103.27 526.408 1103.32 527.584C1103.39 528.768 1103.75 529.953 1104.39 531.137C1105.06 532.331 1106.02 533.638 1107.27 535.057C1109.86 537.519 1112.06 539.972 1113.84 542.416C1115.64 544.832 1116.79 547.454 1117.29 550.284C1117.83 553.095 1117.48 556.335 1116.26 560.002C1115.04 563.67 1113.27 566.543 1110.95 568.622C1108.63 570.701 1105.93 571.981 1102.86 572.462C1099.82 572.925 1096.55 572.573 1093.05 571.409C1090.83 570.667 1088.74 569.596 1086.79 568.196C1084.88 566.778 1083.3 564.996 1082.04 562.853C1080.78 560.682 1080.05 558.134 1079.83 555.21C1079.65 552.267 1080.2 548.877 1081.48 545.04L1093.33 548.984C1092.65 551.015 1092.26 552.764 1092.14 554.231C1092.07 555.679 1092.21 556.901 1092.57 557.898C1092.93 558.894 1093.43 559.689 1094.08 560.281C1094.73 560.873 1095.49 561.314 1096.36 561.605C1097.63 562.028 1098.79 562.051 1099.82 561.674C1100.85 561.298 1101.75 560.625 1102.51 559.656C1103.3 558.697 1103.93 557.526 1104.39 556.143Z" fill="black"/>
<path d="M1189.61 523.212L1185.43 535.78L1179.08 533.668L1183.26 521.099L1189.61 523.212ZM1165.72 592.022L1161.91 603.49L1155.56 601.377L1159.37 589.909L1165.72 592.022ZM1172.73 578.888C1173.24 577.336 1173.47 575.94 1173.42 574.699C1173.36 573.458 1173.02 572.249 1172.41 571.074C1171.8 569.899 1170.86 568.663 1169.6 567.366C1166.97 564.923 1164.74 562.503 1162.9 560.106C1161.07 557.709 1159.88 555.105 1159.34 552.294C1158.84 549.464 1159.21 546.201 1160.44 542.505C1161.6 539.007 1163.32 536.209 1165.58 534.111C1167.88 532.023 1170.53 530.696 1173.54 530.13C1176.57 529.574 1179.76 529.85 1183.08 530.958C1185.62 531.803 1187.79 533.024 1189.57 534.622C1191.37 536.191 1192.73 538.085 1193.65 540.304C1194.58 542.494 1195.03 544.962 1195 547.708C1195 550.435 1194.47 553.378 1193.42 556.538L1181.57 552.594C1182.13 550.929 1182.49 549.42 1182.65 548.066C1182.82 546.712 1182.81 545.532 1182.61 544.526C1182.41 543.52 1182.06 542.698 1181.55 542.058C1181.04 541.419 1180.41 540.973 1179.65 540.719C1178.52 540.344 1177.48 540.358 1176.53 540.763C1175.58 541.168 1174.75 541.878 1174.04 542.894C1173.33 543.882 1172.75 545.067 1172.29 546.449C1171.82 547.86 1171.61 549.153 1171.65 550.328C1171.73 551.513 1172.09 552.697 1172.73 553.882C1173.4 555.075 1174.36 556.382 1175.61 557.801C1178.2 560.263 1180.4 562.716 1182.18 565.16C1183.98 567.576 1185.13 570.199 1185.63 573.029C1186.17 575.84 1185.82 579.079 1184.6 582.747C1183.38 586.414 1181.61 589.288 1179.29 591.367C1176.97 593.446 1174.27 594.726 1171.2 595.207C1168.16 595.669 1164.89 595.318 1161.39 594.154C1159.16 593.412 1157.08 592.341 1155.13 590.941C1153.22 589.522 1151.64 587.741 1150.37 585.598C1149.12 583.426 1148.39 580.878 1148.17 577.954C1147.99 575.011 1148.54 571.622 1149.82 567.785L1161.67 571.728C1160.99 573.759 1160.6 575.509 1160.48 576.975C1160.41 578.423 1160.55 579.646 1160.91 580.642C1161.27 581.639 1161.77 582.433 1162.42 583.025C1163.07 583.617 1163.83 584.059 1164.7 584.35C1165.97 584.772 1167.12 584.795 1168.16 584.419C1169.19 584.042 1170.09 583.369 1170.85 582.401C1171.64 581.441 1172.27 580.27 1172.73 578.888Z" fill="black"/>
</g>
<path fill-rule="evenodd" clip-rule="evenodd" d="M135.24 106.24C128 113.481 128 125.134 128 148.44V152.56C128 175.866 128 187.519 135.24 194.76C142.481 202 154.134 202 177.44 202H181.56C204.866 202 216.519 202 223.76 194.76C231 187.519 231 175.866 231 152.56V148.44C231 125.134 231 113.481 223.76 106.24C216.519 99 204.866 99 181.56 99H177.44C154.134 99 142.481 99 135.24 106.24ZM145.381 130.329C145.939 157.109 159.329 173.203 182.805 173.203H184.135V157.882C192.762 158.74 199.284 165.049 201.902 173.203H214.091C210.744 161.015 201.945 154.277 196.452 151.702C201.945 148.526 209.67 140.801 211.516 130.329H200.443C198.039 138.827 190.916 146.552 184.135 147.281V130.329H173.062V160.028C166.196 158.311 157.527 149.985 157.141 130.329H145.381Z" fill="white"/>
</g>
<defs>
<filter id="filter0_d_42_11940" x="1145.61" y="642.614" width="294.074" height="294.074" filterUnits="userSpaceOnUse" color-interpolation-filters="sRGB">
<feFlood flood-opacity="0" result="BackgroundImageFix"/>
<feColorMatrix in="SourceAlpha" type="matrix" values="0 0 0 0 0 0 0 0 0 0 0 0 0 0 0 0 0 0 127 0" result="hardAlpha"/>
<feOffset dx="10" dy="10"/>
<feGaussianBlur stdDeviation="2.5"/>
<feComposite in2="hardAlpha" operator="out"/>
<feColorMatrix type="matrix" values="0 0 0 0 0 0 0 0 0 0 0 0 0 0 0 0 0 0 0.2 0"/>
<feBlend mode="normal" in2="BackgroundImageFix" result="effect1_dropShadow_42_11940"/>
<feBlend mode="normal" in="SourceGraphic" in2="effect1_dropShadow_42_11940" result="shape"/>
</filter>
<filter id="filter1_d_42_11940" x="950.3" y="413.3" width="369.229" height="369.229" filterUnits="userSpaceOnUse" color-interpolation-filters="sRGB">
<feFlood flood-opacity="0" result="BackgroundImageFix"/>
<feColorMatrix in="SourceAlpha" type="matrix" values="0 0 0 0 0 0 0 0 0 0 0 0 0 0 0 0 0 0 127 0" result="hardAlpha"/>
<feOffset dx="12.5556" dy="12.5556"/>
<feGaussianBlur stdDeviation="3.13889"/>
<feComposite in2="hardAlpha" operator="out"/>
<feColorMatrix type="matrix" values="0 0 0 0 0 0 0 0 0 0 0 0 0 0 0 0 0 0 0.2 0"/>
<feBlend mode="normal" in2="BackgroundImageFix" result="effect1_dropShadow_42_11940"/>
<feBlend mode="normal" in="SourceGraphic" in2="effect1_dropShadow_42_11940" result="shape"/>
</filter>
<clipPath id="clip0_42_11940">
<rect width="1920" height="1080" fill="white"/>
</clipPath>
</defs>
</svg>
