<svg width="1920" height="1080" viewBox="0 0 1920 1080" fill="none" xmlns="http://www.w3.org/2000/svg">
  <g>
    <rect width="1920" height="1080"/>
    <path d="M1421.74 718.82C1422.32 723.178 1422.64 727.622 1423.54 731.893C1436.2 792.405 1453.4 851.58 1476.74 908.882C1492.94 948.695 1511.96 987.07 1536.31 1022.61C1550.18 1042.82 1565.63 1061.69 1584.11 1077.93C1584.7 1078.32 1585.34 1078.66 1586 1078.93C1585.8 1079.28 1585.59 1079.62 1585.4 1079.99H1582.34C1530.03 1079.99 1477.72 1079.99 1425.42 1079.99C1424.31 1080.06 1423.2 1079.8 1422.24 1079.25C1421.28 1078.69 1420.5 1077.86 1420.01 1076.86C1391.46 1031.6 1368.91 983.41 1349.99 933.458C1327.22 872.82 1309.49 810.407 1296.99 746.854C1295.22 737.979 1293.53 729.089 1291.79 720.069H1061.26C1063.45 728.886 1065.51 737.5 1067.78 746.128C1081.67 799.086 1100.22 850.316 1125.1 899.164C1146.47 941.156 1171.84 980.505 1204.42 1014.77C1228.36 1039.99 1255.27 1061.25 1287.06 1075.78C1289.74 1076.9 1292.32 1078.27 1294.75 1079.86H1291.34C1214.81 1079.86 1138.32 1079.86 1061.87 1079.86C1060.7 1079.94 1059.53 1079.72 1058.48 1079.21C1057.42 1078.7 1056.52 1077.92 1055.87 1076.95C1018.25 1027.92 988.607 974.332 964.4 917.626C937.5 854.232 917.4 788.165 904.436 720.534C904.409 720.167 904.409 719.798 904.436 719.43H1057.23C976.097 611.842 930.459 489.933 904 359.352H1056.56C975.893 252.069 930.43 130.392 904 0.261708H1060.92C1063.41 10.0662 1065.79 20.0012 1068.45 29.8783C1087.73 101.807 1114.94 170.38 1155.51 233.23C1175.68 264.474 1198.95 293.118 1227.08 317.636C1245.73 334.203 1266.8 347.829 1289.56 358.045C1291.08 358.766 1292.71 359.186 1294.39 359.279C1335.77 359.338 1377.16 359.338 1418.56 359.279C1419.13 359.279 1419.69 359.207 1420.56 359.149C1352.55 248.438 1315.48 126.95 1291.52 0H1295.88C1336.31 0 1376.73 0 1417.16 0C1419.87 0 1421.04 0.465032 1421.65 3.50079C1433.64 63.1555 1449.97 121.561 1472.13 178.282C1488.8 220.913 1508.34 262.121 1534.09 300.119C1541.46 311.029 1549.4 321.554 1557.86 331.653C1566.33 341.719 1575.77 350.956 1584.78 360.543H1421.07C1423.19 370.449 1425.1 379.89 1427.22 389.288C1438.8 441.284 1454.4 492.301 1473.9 541.875C1490.99 584.869 1511.13 626.309 1537.57 664.452C1551.11 684.003 1566.18 702.218 1584.07 718.007C1584.64 718.426 1585.26 718.79 1585.9 719.096L1585.39 720.069H1582.34C1530.03 720.069 1477.75 720.069 1425.49 720.069C1424.2 719.886 1422.94 719.529 1421.74 719.009C1421.09 718.31 1420.5 717.562 1419.97 716.772C1409.52 698.398 1398.33 680.459 1388.79 661.576C1344.24 573.67 1315.82 480.317 1296.44 384.001C1294.9 376.346 1293.53 368.663 1292.08 361.081H1061.61C1061.81 362.286 1061.92 363.245 1062.14 364.174C1077.31 428.085 1098.74 489.759 1129.47 547.99C1150.69 588.166 1175.69 625.656 1207.51 658.381C1231.87 683.393 1259.17 704.281 1291.48 718.123C1293.46 718.959 1295.59 719.398 1297.74 719.416C1337.9 719.493 1378.07 719.493 1418.25 719.416C1419.43 719.297 1420.59 719.098 1421.74 718.82Z" fill="#0069E0"/>
    <path d="M1895 719.874H1779.86C1781.07 727.24 1782.15 734.402 1783.4 741.404C1790.56 781.98 1799.01 822.265 1809.3 862.158C1821.66 910.099 1836.2 957.416 1855.34 1003.16C1866.23 1029.17 1878.6 1054.42 1894.01 1078.08C1894.26 1078.47 1894.45 1078.91 1894.85 1079.68C1893.71 1079.78 1892.82 1079.91 1891.95 1079.91C1855.73 1079.91 1819.54 1079.91 1783.34 1080C1780.65 1080 1779.59 1078.94 1778.53 1076.76C1755.64 1029.27 1738.3 979.716 1723.65 929.159C1705.7 866.677 1691.58 803.161 1681.36 738.964C1680.33 732.528 1679.31 726.092 1678.22 719.293H1779.7C1752.24 662.359 1732.54 603.232 1716.31 542.884C1700.17 482.394 1687.45 421.043 1678.22 359.124H1778.95C1725.74 244.704 1698.03 123.645 1678 0H1779.63C1780.81 6.7263 1782.03 13.5835 1783.21 20.455C1792.22 73.6785 1804.14 126.371 1818.9 178.298C1829.24 215.415 1841.9 251.848 1856.8 287.386C1867.28 311.996 1879.08 335.923 1893.71 358.397C1894.01 358.877 1894.27 359.4 1894.81 360.358H1779.97C1780.88 366.082 1781.64 371.37 1782.55 376.644C1790.03 419.733 1798.98 462.502 1809.97 504.836C1822.18 551.862 1836.52 598.191 1855.28 643.066C1866.11 668.969 1878.41 694.131 1893.74 717.738C1894.07 718.232 1894.35 718.741 1895 719.874Z" fill="#0069E0"/>
  </g>
</svg>
