<svg width="103" height="103" viewBox="0 0 103 103" fill="none" xmlns="http://www.w3.org/2000/svg">
<path fill-rule="evenodd" clip-rule="evenodd" d="M7.24032 7.24032C0 14.4806 0 26.1338 0 49.44V53.56C0 76.8662 0 88.5194 7.24032 95.7597C14.4806 103 26.1338 103 49.44 103H53.56C76.8662 103 88.5194 103 95.7597 95.7597C103 88.5194 103 76.8662 103 53.56V49.44C103 26.1338 103 14.4806 95.7597 7.24032C88.5194 0 76.8662 0 53.56 0H49.44C26.1338 0 14.4806 0 7.24032 7.24032ZM17.3814 31.3293C17.9393 58.1093 31.3292 74.203 54.8046 74.203H56.1353V58.8817C64.7616 59.74 71.2844 66.0488 73.9023 74.203H86.091C82.7436 62.0146 73.9452 55.2767 68.4518 52.7017C73.9452 49.5259 81.6702 41.8009 83.5156 31.3293H72.4428C70.0395 39.8268 62.9161 47.5517 56.1353 48.2813V31.3293H45.0625V61.0275C38.1958 59.3109 29.5268 50.9851 29.1406 31.3293H17.3814Z" fill="white"/>
</svg>
